<svg width="195" height="5" viewBox="0 0 195 5" fill="none" xmlns="http://www.w3.org/2000/svg">
<path d="M0.472739 1.55185C0.530222 -0.192722 3.08552 0.421921 4.41978 0.393625C13.6759 0.182118 25.1619 0.258913 34.5283 0.429012C77.8253 1.12412 118.953 1.68626 162.284 2.43537C170.841 2.57247 179.284 2.35161 187.841 2.4887C189.551 2.52085 193.794 2.18559 194.014 3.48252C194.235 4.77946 190.447 4.69247 188.68 4.74821C175.231 5.15963 161.838 4.69657 148.18 4.5407C113.287 4.12808 78.3115 3.43517 43.3736 2.77263C31.1866 2.53766 18.9463 2.10006 6.69092 1.75706C6.05229 1.72727 0.447853 2.30592 0.472739 1.55185Z" fill="white"/>
</svg>
